<svg xmlns="http://www.w3.org/2000/svg" fill="#1B1C21" focusable="false" aria-hidden="true" width="328" height="105" style=""><rect id="backgroundrect" width="100%" height="100%" x="0" y="0" fill="none" stroke="none"/><g class="currentLayer" style=""><title>Layer 1</title><path d="M31.935 84.587a4.47 4.47 0 0 1-1.641-5.003l.938-3.873a5 5 0 0 1 2.502-3.216l3.081-1.616a9.63 9.63 0 0 0 4.315-4.514 9.6 9.6 0 0 0 .63-6.205l-.042-.193a9.64 9.64 0 0 0-3.988-5.705 9.68 9.68 0 0 0-6.799-1.542l-3.447.493a5.03 5.03 0 0 1-3.95-1.13l-3.045-2.579a4.53 4.53 0 0 1-1.613-5.003 9.6 9.6 0 0 0-.052-6.11 9.63 9.63 0 0 0-3.732-4.849 9.675 9.675 0 0 0-11.608.613A9.62 9.62 0 0 0 .287 39.37a9.6 9.6 0 0 0 .595 6.083 9.64 9.64 0 0 0 4.147 4.5 9.68 9.68 0 0 0 6.028 1.103c.337-.05.667-.122.996-.2l.896-.172a5.03 5.03 0 0 1 4.236 1.108l4.143 3.573a5 5 0 0 1 1.655 4.51l-.1.629-.086.55v.05a9.6 9.6 0 0 0 .215 3.43c0 .065 0 .129.05.186v.072a9.5 9.5 0 0 0 2.236 4.073q.192.203.394.393l.452.45a5 5 0 0 1 1.311 4.66l-1.261 5.296a4.95 4.95 0 0 1-2.774 3.373l-.774.357a9 9 0 0 0-.924.422 9.6 9.6 0 0 0-3.498 3.144 9.6 9.6 0 0 0-1.584 7.191 9.62 9.62 0 0 0 3.978 6.202 9.664 9.664 0 0 0 13.43-2.387 9.5 9.5 0 0 0 1.7-3.995q.097-.489.136-.986l.1-.843a9.8 9.8 0 0 0-1.153-4.242 9.8 9.8 0 0 0-2.896-3.312Z" id="svg_1" class="selected" fill="#ffffff" fill-opacity="1"/><path fill="#EC1D35" d="M105.642 38.57a9.6 9.6 0 0 0-2.601-4.062 9.67 9.67 0 0 0-9.081-2.254 9.67 9.67 0 0 0-4.207 2.37q-.377.339-.717.715l-.58.629a5.02 5.02 0 0 1-4.071 1.594l-5.447-.444a5.03 5.03 0 0 1-4.042-2.687l-.287-.564c-.086-.172-.165-.336-.258-.493v-.05a9.5 9.5 0 0 0-2.2-2.652l-.144-.114-.064-.057a9.66 9.66 0 0 0-4.207-1.98h-.057l-.552-.093-.638-.05a5 5 0 0 1-3.813-2.994l-2.107-5.003a4.99 4.99 0 0 1 .258-4.36l.423-.714a9.5 9.5 0 0 0 1.476-5.103 9.61 9.61 0 0 0-2.917-6.637A9.67 9.67 0 0 0 53.076.84c-2.515 0-4.93.979-6.733 2.727a9.61 9.61 0 0 0-2.917 6.637 9.5 9.5 0 0 0 .981 4.224q.23.45.495.879l.423.715a5 5 0 0 1 .258 4.36l-2.107 5.002a5 5 0 0 1-3.784 2.994l-.624.1-.559.093h-.05a9.5 9.5 0 0 0-3.21 1.272l-.144.093a.3.3 0 0 0-.079.05 9.5 9.5 0 0 0-3.19 3.395v.05a12 12 0 0 0-.25.493c-3.913 8.376 4.651 13.021 5.733 13.307a10.15 10.15 0 0 0 7.977-.915l.18-.114a9.6 9.6 0 0 0 4.188-5.55 9.57 9.57 0 0 0-.663-6.914l-1.562-3.144a5 5 0 0 1-.143-4.095l1.49-3.688a4.5 4.5 0 0 1 1.643-2.215 4.516 4.516 0 0 1 6.9 2.215l1.52 3.688a5 5 0 0 1-.136 4.095l-1.541 3.115a9.57 9.57 0 0 0 2.365 11.585l.15.136a9.64 9.64 0 0 0 9.188 1.787 9.5 9.5 0 0 0 3.792-2.294l2.501-2.423a4.97 4.97 0 0 1 3.863-1.43l3.985.3a4.55 4.55 0 0 1 2.62.872 4.53 4.53 0 0 1 1.63 2.223c.609 1.873 2.15 5.467 7.79 6.546a9.7 9.7 0 0 0 4.804-.541 9.65 9.65 0 0 0 3.938-2.796 9.62 9.62 0 0 0 1.794-9.162z" id="svg_2"/><path fill="#402FFF" d="M70.809 53.092a10 10 0 0 0-3.525 2.096 10 10 0 0 0-2.388 3.328c0 .064-.057.128-.079.193a9.6 9.6 0 0 0-.102 6.941 9.64 9.64 0 0 0 4.603 5.208l3.089 1.615a5.01 5.01 0 0 1 2.523 3.23l.946 3.874a4.47 4.47 0 0 1-1.639 4.995 4.5 4.5 0 0 1-5.27.007l-3.404-2.086a5 5 0 0 1-2.323-3.373l-.587-3.424a9.6 9.6 0 0 0-2.976-5.5 9.65 9.65 0 0 0-5.74-2.511h-.207a9.67 9.67 0 0 0-6.664 2.036 9.62 9.62 0 0 0-3.55 5.982c-1.36 8.148 5.985 10.799 8.83 11.163h.266a9.63 9.63 0 0 0 4.572-.864h.05l.502-.25.566-.286a5.03 5.03 0 0 1 4.852.186l4.666 2.858a4.96 4.96 0 0 1 2.358 3.673l.1.844a9.6 9.6 0 0 0 2.118 5.404 9.65 9.65 0 0 0 8.684 3.513 9.67 9.67 0 0 0 4.504-1.766 9.63 9.63 0 0 0 3.079-3.724 9.6 9.6 0 0 0-.663-9.32 9.64 9.64 0 0 0-3.574-3.255 11 11 0 0 0-.925-.422l-.774-.357a4.96 4.96 0 0 1-2.773-3.366l-1.262-5.303a4.99 4.99 0 0 1 1.312-4.66l.451-.45q.203-.19.395-.393v-.043a9.4 9.4 0 0 0 1.849-2.901l.064-.164v-.079a9.6 9.6 0 0 0 .588-4.602v-.058c-1.276-9.312-10.478-8.754-12.542-7.99Z" id="svg_3"/><path d="M151.716 94.284v-7.597h-9.317a12.3 12.3 0 0 1-6.02-1.73c-2.007-1.179-5.562-5.088-6.658-6.639a9.75 9.75 0 0 1-1.548-5.638V45.294a9.86 9.86 0 0 1 1.548-5.717c1.096-1.43 4.651-5.368 6.658-6.554a12.36 12.36 0 0 1 6.02-1.722h9.317v-7.376h10.127v7.361h9.095c2.12.06 4.191.652 6.02 1.723 2.007 1.186 5.476 5.095 6.665 6.553a9.9 9.9 0 0 1 1.548 5.718v27.385a9.8 9.8 0 0 1-1.548 5.64c-1.189 1.55-4.658 5.46-6.665 6.638a12.55 12.55 0 0 1-6.02 1.73h-9.095v7.597zm-9.095-18.238h9.095V41.928h-9.002a17.1 17.1 0 0 0-3.375 3.459V72.68a16.6 16.6 0 0 0 3.282 3.366m31.42-30.73a12.8 12.8 0 0 0-3.282-3.367h-8.916v34.118h8.822a23 23 0 0 0 3.376-3.366V45.315Zm59.37 2.344a12.7 12.7 0 0 0-4.838-5.718h-16.211a17 17 0 0 0-3.584 3.637v27.115a10.8 10.8 0 0 0 3.584 3.366h16.391a15.3 15.3 0 0 0 4.658-5.46l10.399 2.551a23.4 23.4 0 0 1-3.103 5.818c-2.193 3.094-6.45 7.732-12.04 7.732h-16.764a12.57 12.57 0 0 1-6.02-1.73c-1.914-1.179-5.383-4.816-6.658-6.546a10.76 10.76 0 0 1-1.556-5.638V45.2a9.6 9.6 0 0 1 1.556-5.639c1.089-1.43 4.651-5.274 6.751-6.553a13 13 0 0 1 5.927-1.723h16.771c5.561 0 9.761 4.638 11.947 7.64a24 24 0 0 1 3.103 5.796l-10.313 2.937Zm55.623 38.577V42.292h-23.056v43.945h-11.131v-51.52a3.05 3.05 0 0 1 .897-2.144 3.06 3.06 0 0 1 2.149-.893h39.225a3.07 3.07 0 0 1 2.15.893c.57.57.892 1.34.896 2.144v51.556z" id="svg_4"/></g></svg>